<svg width="580" height="829" viewBox="0 0 580 829" fill="none" xmlns="http://www.w3.org/2000/svg">
<path d="M0 0V8.32L8.32 0H0ZM52.3328 0L51.1098 1.18976L149.369 97.8598L217.51 30.1101L188.581 0.39104L188.939 0H172.316L171.941 0.39104L200.87 30.1101L149.369 81.2198L68.5402 1.59744L70.1709 0H52.3328ZM108.568 0L117.279 8.71104L125.99 0H108.568ZM228.991 0L288.421 59.4298L268.22 80.4211L239.683 51.1098L199.289 89.1488L267.829 156.89L364.89 59.4298L305.228 0H288.521L348.641 59.8291L268.22 140.641L216.32 89.5398L239.3 68.1574L268.22 98.2509L305.469 59.8291L246.039 0.39104L246.438 0H228.991ZM347.868 0L387.87 40.0109L425.909 1.98848L423.929 0H406.898L409.269 2.3712L387.87 23.7702L364.1 0H347.868ZM464.913 0L318.148 148.961L356.171 187.4L540.8 2.77056L538.279 0H522.413L524.559 2.3712L356.579 170.369L335.18 148.961L481.37 0H464.913ZM585.961 0L555.843 30.1184L623.609 97.8598L721.061 0.39104L720.67 0H704.438L704.829 0.39104L624 81.2198L572.89 30.1101L594.273 8.71104L624 38.4301L662.438 0H645.399L623.609 21.7984L601.819 0H585.961ZM764.259 0L734.14 30.1184L772.163 68.1491L832 8.30336V0H824.071L772.57 51.5091L751.171 30.1101L781.29 0H764.259ZM32.0986 18.2291L0 50.6771V67.6499L31.2998 35.6512L53.481 61.0189L0.39104 112.52L0 112.104V129.559L69.7216 62.2086L32.0986 18.2291ZM832 50.6771L793.961 89.1488L832 129.559V112.112L810.601 89.5398L832 67.6416V50.6771ZM534.46 51.5091L496.421 89.5315L534.46 127.579L572.483 89.5398L534.46 51.5091ZM712.741 51.5091L623.609 140.641L593.89 110.939L555.851 148.961L623.609 216.711L750.78 89.5398L712.741 51.5091ZM534.46 68.1491L555.843 89.5315L534.46 110.939L513.061 89.5398L534.46 68.1574V68.1491ZM713.149 68.1491L734.531 89.5315L624 200.079L572.89 148.97L594.273 127.587L624 157.281L713.149 68.1491ZM88.7411 83.2L0 171.958V188.598L88.7411 99.84L110.14 121.239L0 231.388V248.028L126.78 121.239L88.7411 83.2ZM475.039 110.939L356.171 229.79L294.761 168.388L227.011 236.13L265.05 274.169L294.753 244.45L318.14 267.829L267.039 318.939L177.882 229.79L139.843 267.829L267.03 395.009L475.03 187.009L564.171 276.141L602.21 238.102L475.039 110.939ZM772.171 112.919L734.148 150.941L831.609 248.41L832 248.028V231.77L751.171 150.95L772.57 129.567L832 188.98V171.949L831.609 172.34L772.171 112.919ZM180.261 113.701L80.4211 208.383L118.46 247.229L179.479 187.009L207.609 216.711L246.047 178.273L180.261 113.701ZM475.039 127.18L585.562 237.711L564.163 259.093L475.03 169.953L267.03 377.953L156.483 267.421L177.882 246.039L267.03 335.163L334.772 267.421L294.753 227.411L265.05 257.113L243.643 235.731L294.753 184.621L356.154 246.031L475.03 127.163L475.039 127.18ZM179.87 130.749L228.991 178.689L208 199.68L179.878 170.369L118.851 230.98L97.4688 209.181L179.87 130.749ZM712.741 170.369L674.719 208.391L801.882 335.579L831.992 305.46V289.619L712.741 170.369ZM713.149 187.009L823.68 297.54L802.281 318.939L691.75 208.391L713.149 187.009ZM655.3 227.81L564.171 318.939L534.468 289.22L496.421 327.259L564.171 395.009L693.339 265.849L655.3 227.81ZM59.0387 229.79L20.9914 267.829L148.179 395.009L186.218 356.961L59.0387 229.798V229.79ZM475.039 229.79L377.562 327.259L415.601 365.281L513.053 267.829L475.039 229.79ZM655.691 244.45L677.09 265.849L564.57 378.369L513.469 327.259L534.851 305.86L564.57 335.579L655.691 244.45ZM59.0387 246.43L169.562 356.961L148.163 378.369L37.6314 267.821L59.0387 246.43ZM475.039 246.43L496.421 267.829L415.609 348.641L394.21 327.259L475.039 246.43ZM712.741 289.22L674.719 327.259L772.171 424.711L810.21 386.689L712.741 289.22ZM0 289.611V305.469L7.92896 297.54L0 289.611ZM713.149 305.86L793.961 386.689L772.579 408.071L691.75 327.259L713.149 305.86ZM29.3114 320.919L0 348.417V365.722L20.9914 385.89L0 407.455V425.094L59.0387 484.149L126.78 416.391L29.3114 320.919ZM29.3114 337.151L110.14 416L59.0387 467.11L7.92896 416L37.6314 385.091L8.32 356.57L29.3114 337.151ZM832 348.417L822.881 356.961L832 365.722V348.417ZM356.171 348.641L318.148 386.689L356.171 424.711L394.21 386.689L356.171 348.641ZM475.039 348.641L377.562 446.118L415.601 484.157L475.03 424.719L564.163 513.868L602.202 475.846L475.03 348.65L475.039 348.641ZM653.719 348.641L585.961 416.391L624 454.43L653.719 424.711L713.149 484.149L751.171 446.11L653.719 348.641ZM356.171 365.281L377.57 386.689L356.171 408.071L334.788 386.689L356.171 365.281ZM475.039 365.281L585.562 475.829L564.163 497.212L475.03 408.071L415.601 467.509L394.202 446.11L475.039 365.281ZM653.719 365.281L734.531 446.11L713.149 467.509L653.719 408.071L624 437.79L602.601 416.391L653.719 365.281ZM207.609 378.369L80.4211 505.54L118.46 543.579L245.631 416.391L207.609 378.369ZM207.609 395.009L228.991 416.391L118.46 526.939L97.0611 505.54L207.609 395.009ZM832 407.455L823.289 416.391L832 425.102V407.455ZM296.741 408.071L258.719 446.11L415.609 603.009L513.061 505.54L475.039 467.517L415.609 526.939L296.741 408.071ZM296.741 424.711L415.609 543.579L475.039 484.149L496.421 505.532L415.609 586.369L275.359 446.11L296.741 424.711ZM803.87 439.77L765.831 477.793L832 543.978V526.931L782.879 477.809L804.261 456.427L832 484.141V467.892L803.87 439.77ZM237.311 467.509L80.4211 624.391L118.46 662.43L177.89 603.009L237.311 662.43L275.359 624.391L215.929 564.961L237.311 543.579L296.741 603.009L334.78 564.961L237.311 467.509ZM653.311 467.509L585.57 535.259L653.311 603.009L691.359 564.961L661.631 535.259L691.359 505.54L653.311 467.509ZM0 467.9V484.54L80.4211 564.961L59.0387 586.369L0 527.322V543.962L59.0387 603L97.0611 564.953L0 467.9ZM237.311 483.75L318.14 564.57L296.741 585.953L237.311 526.531L199.289 564.57L258.719 624L237.311 645.399L177.89 585.961L118.46 645.399L97.0611 624L237.311 483.75ZM653.311 484.149L674.719 505.532L644.991 535.259L674.719 564.961L653.311 586.369L602.21 535.259L653.311 484.149ZM742.46 497.212L704.421 535.259L734.14 564.961L676.699 622.411L714.721 660.45L810.21 564.961L742.46 497.212ZM742.851 513.852L793.961 564.961L715.129 643.81L693.73 622.411L751.171 564.961L721.469 535.259L742.851 513.852ZM534.46 526.939L466.719 594.689L504.741 632.711L572.491 564.961L534.46 526.939ZM534.46 543.579L555.843 564.961L504.741 616.071L483.359 594.689L534.46 543.579ZM356.163 586.369L237.32 705.22L177.898 645.79L139.859 683.812L237.32 781.281L394.218 624.391L356.179 586.369H356.163ZM593.89 586.369L555.851 624.391L653.311 721.86L691.359 683.812L593.89 586.369ZM831.609 586.369L734.14 683.812L772.163 720.67L831.609 662.43L832 662.821V645.399L772.57 704.03L751.171 683.43L832 602.601V586.751L831.609 586.369ZM0 586.751V602.992L139.851 742.851L118.468 764.25L88.7411 734.531L29.3114 793.961L0 764.641V781.697L29.3114 811.009L88.7411 751.579L118.46 781.281L156.483 743.259L0 586.751ZM356.171 603.009L377.57 624.391L237.311 764.641L156.491 683.812L177.89 662.43L237.311 721.86L356.179 603.009H356.171ZM593.89 603.009L674.719 683.812L653.311 705.22L572.491 624.391L593.89 603.009ZM445.311 616.071L407.289 654.11L445.311 692.132L483.359 654.11L445.311 616.071ZM445.311 632.711L466.719 654.11L445.311 675.492L423.929 654.11L445.311 632.711ZM0 645.79V662.821L50.7187 713.54L29.3114 735.721L0 705.619V721.868L29.3114 752.353L67.3587 713.14L0 645.79ZM534.46 645.79L445.311 734.939L385.89 675.492L347.851 713.54L445.311 811.009L572.499 683.812L534.477 645.79H534.46ZM534.46 662.43L555.843 683.812L445.311 794.369L364.491 713.54L385.89 692.132L445.311 751.579L534.46 662.43ZM593.89 705.22L526.14 772.961L564.163 811.009L593.89 781.281L623.609 811.009L661.631 772.961L593.89 705.22ZM712.741 705.22L674.719 743.259L740.48 809.02L778.519 770.981L712.741 705.22ZM831.609 705.22L793.57 743.259L832 781.697V764.25L810.601 742.851L832 721.469V705.619L831.609 705.203V705.22ZM594.281 721.469L645.399 772.57L624 793.953L594.281 764.25L564.579 793.953L543.171 772.57L594.281 721.469ZM713.149 721.86L762.27 770.981L740.871 792.38L691.75 743.259L713.149 721.86ZM326.46 734.939L288.421 772.961L347.46 832H364.1L305.061 772.961L326.46 751.579L406.898 832H423.538L326.46 734.939ZM175.91 764.641L116.871 824.071L89.1488 796.349L52.3245 832H70.1542L89.5398 812.989L108.568 832H125.99L176.7 781.281L199.68 803.08L172.307 832H188.939L216.32 802.281L175.91 764.641ZM803.87 792.38L764.25 832H781.281L804.261 809.02L825.66 830.403L824.071 832H832V820.518L803.87 792.38ZM503.169 793.179L464.913 832H481.37L502.753 810.202L522.413 832H538.287L503.169 793.179ZM267.039 793.961L228.991 832H246.43L267.43 811.009L288.521 832H305.228L267.039 793.961ZM683.039 794.369L645.399 832H662.43L683.43 811.009L704.438 832H720.67L683.039 794.369ZM0 820.493V832H8.32L9.90912 830.411L0 820.493ZM593.882 824.071L585.961 832H601.819L593.882 824.071Z" fill="#76C1C0"/>
</svg>
