<svg width="60" height="60" viewBox="0 0 60 60" fill="none" xmlns="http://www.w3.org/2000/svg">
<path fill-rule="evenodd" clip-rule="evenodd" d="M0 9.23077C0 6.78262 0.972525 4.43474 2.70363 2.70363C4.43474 0.972525 6.78262 0 9.23077 0H50.7692C53.2174 0 55.5653 0.972525 57.2964 2.70363C59.0275 4.43474 60 6.78262 60 9.23077V39.2308C60 41.6789 59.0275 44.0268 57.2964 45.7579C55.5653 47.489 53.2174 48.4615 50.7692 48.4615H41.5385V49.2523C41.5385 51.0892 42.2677 52.8523 43.5662 54.1477L45.4769 56.0615C45.7993 56.3843 46.0187 56.7953 46.1076 57.2427C46.1965 57.69 46.1508 58.1537 45.9763 58.5752C45.8018 58.9966 45.5063 59.3568 45.1272 59.6104C44.7481 59.864 44.3023 59.9996 43.8462 60H16.1538C15.6977 59.9996 15.2519 59.864 14.8728 59.6104C14.4937 59.3568 14.1982 58.9966 14.0237 58.5752C13.8492 58.1537 13.8035 57.69 13.8924 57.2427C13.9813 56.7953 14.2007 56.3843 14.5231 56.0615L16.4338 54.1477C17.7314 52.8501 18.4607 51.0904 18.4615 49.2554V48.4615H9.23077C6.78262 48.4615 4.43474 47.489 2.70363 45.7579C0.972525 44.0268 0 41.6789 0 39.2308V9.23077ZM4.61538 9.23077V32.3077C4.61538 33.5318 5.10165 34.7057 5.9672 35.5713C6.83275 36.4368 8.00669 36.9231 9.23077 36.9231H50.7692C51.9933 36.9231 53.1672 36.4368 54.0328 35.5713C54.8984 34.7057 55.3846 33.5318 55.3846 32.3077V9.23077C55.3846 8.00669 54.8984 6.83275 54.0328 5.9672C53.1672 5.10165 51.9933 4.61538 50.7692 4.61538H9.23077C8.00669 4.61538 6.83275 5.10165 5.9672 5.9672C5.10165 6.83275 4.61538 8.00669 4.61538 9.23077Z" fill="#00413F"/>
</svg>